<?xml version="1.0" encoding="utf-8"?>
<!-- Generator: Adobe Illustrator 22.0.0, SVG Export Plug-In . SVG Version: 6.00 Build 0)  -->
<svg version="1.1" id="Layer_1" xmlns="http://www.w3.org/2000/svg" xmlns:xlink="http://www.w3.org/1999/xlink" x="0px" y="0px"
	 viewBox="0 0 1167 972.3" style="enable-background:new 0 0 1167 972.3;" xml:space="preserve">
<style type="text/css">
	.st0{fill:#FFFFFF;stroke:#000000;stroke-miterlimit:10;}
</style>
<g id="Web_Frame">
	<path class="st0" d="M1095.4,835.2c0,5.5-4.5,10-10,10H83.6c-5.5,0-10-4.5-10-10V139c0-5.5,4.5-10,10-10h1001.8c5.5,0,10,4.5,10,10
		V835.2z"/>
	<line class="st0" x1="73.6" y1="175.8" x2="1095.4" y2="175.8"/>
	<path class="st0" d="M96.8,154.4c0-4.3,3.5-7.7,7.7-7.7c4.3,0,7.7,3.5,7.7,7.7c0,4.3-3.5,7.7-7.7,7.7S96.8,158.6,96.8,154.4z"/>
	<path class="st0" d="M121.8,154.4c0-4.3,3.5-7.7,7.7-7.7c4.3,0,7.7,3.5,7.7,7.7c0,4.3-3.5,7.7-7.7,7.7S121.8,158.6,121.8,154.4z"/>
	<path class="st0" d="M146.8,154.4c0-4.3,3.5-7.7,7.7-7.7c4.3,0,7.7,3.5,7.7,7.7c0,4.3-3.5,7.7-7.7,7.7S146.8,158.6,146.8,154.4z"/>
</g>
</svg>
